<svg width="320" height="320" viewBox="0 0 320 320" fill="none" xmlns="http://www.w3.org/2000/svg" role="img" aria-labelledby="title desc">
  <title id="title">Starlight Barbershop emblem</title>
  <desc id="desc">Crowned twin barber poles forming a star shape with neon cyan and emerald accents on a dark base.</desc>
  <defs>
    <linearGradient id="g1" x1="0" y1="0" x2="1" y2="1">
      <stop offset="0%" stop-color="#30d5ff"/>
      <stop offset="100%" stop-color="#0f6b4b"/>
    </linearGradient>
    <linearGradient id="g2" x1="0" y1="1" x2="1" y2="0">
      <stop offset="0%" stop-color="#f8f3e8" stop-opacity="0.9"/>
      <stop offset="100%" stop-color="#30d5ff" stop-opacity="0.8"/>
    </linearGradient>
    <filter id="shadow" x="-10%" y="-10%" width="120%" height="120%" color-interpolation-filters="sRGB">
      <feDropShadow dx="0" dy="0" stdDeviation="8" flood-color="#30d5ff" flood-opacity="0.5"/>
    </filter>
  </defs>
  <rect width="320" height="320" rx="28" fill="#0c0f14"/>
  <circle cx="160" cy="160" r="138" stroke="url(#g1)" stroke-width="4" opacity="0.35"/>
  <path d="M160 66 190 138 268 148 210 202 226 276 160 236 94 276 110 202 52 148 130 138Z" fill="#0c0f14" stroke="url(#g2)" stroke-width="6" filter="url(#shadow)"/>
  <g stroke="url(#g1)" stroke-width="9" stroke-linecap="round">
    <path d="M118 196c8-12 12-32 12-52s-4-40-12-52"/>
    <path d="M202 196c-8-12-12-32-12-52s4-40 12-52"/>
  </g>
  <g stroke="#f8f3e8" stroke-width="6">
    <path d="M145 88c0 10-6 18-14 18s-14-8-14-18 6-18 14-18 14 8 14 18Z" fill="#0c0f14"/>
    <path d="M203 88c0 10-6 18-14 18s-14-8-14-18 6-18 14-18 14 8 14 18Z" fill="#0c0f14"/>
  </g>
  <path d="M160 58 174 80 146 80Z" fill="#f8f3e8" stroke="#30d5ff" stroke-width="4"/>
  <path d="M102 230h116" stroke="#30d5ff" stroke-width="10" stroke-linecap="round" opacity="0.6"/>
  <text x="160" y="254" fill="#f8f3e8" font-family="'Bebas Neue','Inter',system-ui" font-size="26" text-anchor="middle" letter-spacing="2">STARLIGHT</text>
  <text x="160" y="278" fill="#30d5ff" font-family="'Inter',system-ui" font-size="12" text-anchor="middle" letter-spacing="3">BARBERSHOP · 2025</text>
</svg>
